<svg width="37" height="35" viewBox="0 0 37 35" fill="none" xmlns="http://www.w3.org/2000/svg">
<path d="M35.3476 19.3729C35.6792 18.9465 35.8403 18.3969 35.6934 17.8363L31.3393 1.33268C31.0866 0.378775 30.1059 -0.192881 29.1536 0.0597809L1.33131 7.39555C0.382166 7.64667 -0.191101 8.6306 0.058413 9.58289L4.41253 26.0849C4.66205 27.0372 5.64751 27.6089 6.59988 27.3594L16.4309 24.7662V30.2921C16.4309 33.3828 21.5526 35 26.6158 35C31.6758 35 36.8037 33.3828 36.8037 30.2922V21.9124C36.8036 20.9063 36.2525 20.0598 35.3476 19.3729ZM32.1969 13.6843L32.6517 15.4025L27.121 16.8634L26.6693 15.142L32.1969 13.6843ZM28.9877 2.81249L29.8516 6.08479L21.2113 8.36527L20.3474 5.09296L28.9877 2.81249ZM25.1106 15.5526L25.5528 17.2329C23.5077 17.3245 21.5178 17.6814 19.9195 18.291L19.5816 17.0149L25.1106 15.5526ZM5.85595 22.4698L5.40429 20.7547L10.9334 19.2923L11.3882 21.0168L5.85595 22.4698ZM12.4922 18.8833L18.0181 17.4224L18.4366 18.997C18.3023 19.0791 18.176 19.1644 18.0528 19.2513L12.9438 20.5999L12.4922 18.8833ZM34.9591 30.1562C34.9591 31.9582 31.2257 33.4175 26.6158 33.4175C22.0106 33.4175 18.2739 31.9566 18.2739 30.1562V28.1269C18.2739 28.0589 18.3134 27.9974 18.3245 27.9326C18.5882 29.6415 22.1795 30.9964 26.6158 30.9964C31.0536 30.9964 34.6464 29.6414 34.9086 27.9326C34.9196 27.9974 34.9591 28.059 34.9591 28.1269V30.1562ZM34.9591 26.1638C34.9591 27.9642 31.2257 29.4234 26.6158 29.4234C22.0106 29.4234 18.2739 27.9642 18.2739 26.1638V24.1344C18.2739 24.0681 18.3134 24.0049 18.3245 23.9402C18.5882 25.6474 22.1795 27.0056 26.6158 27.0056C31.0536 27.0056 34.6464 25.6474 34.9086 23.9402C34.9196 24.0049 34.9591 24.0681 34.9591 24.1344V26.1638ZM26.6157 25.1704C22.0105 25.1704 18.2739 23.7112 18.2739 21.9123C18.2739 20.1135 22.0104 18.6543 26.6157 18.6543C31.2256 18.6543 34.959 20.1135 34.959 21.9123C34.9591 23.7112 31.2256 25.1704 26.6157 25.1704Z" fill="white"/>
</svg>
