<svg width="35" height="35" viewBox="0 0 35 35" fill="none" xmlns="http://www.w3.org/2000/svg">
<path d="M17.4803 34.7675C17.017 34.7675 16.5536 34.6481 16.1403 34.4099L3.48846 27.1047C2.6617 26.6279 2.14844 25.7385 2.14844 24.7842V10.175C2.14844 9.22035 2.66209 8.33097 3.48884 7.85421L16.1403 0.549414C16.967 0.0722625 17.9935 0.0718783 18.8207 0.549414L31.4721 7.85382C32.2985 8.33059 32.8121 9.21996 32.8121 10.1747V24.7839C32.8121 25.7385 32.2985 26.6279 31.4717 27.1047L18.8203 34.4095C18.4069 34.6481 17.9436 34.7675 17.4803 34.7675ZM17.4803 2.49567C17.4157 2.49567 17.3512 2.51219 17.2932 2.54561L4.641 9.8504C4.52536 9.91725 4.45352 10.0417 4.45352 10.175V24.7842C4.45352 24.9175 4.52536 25.042 4.64061 25.1085L17.2928 32.4137C17.4081 32.4797 17.5517 32.4805 17.6674 32.4137L30.3196 25.1089C30.4352 25.042 30.5067 24.9179 30.5067 24.7842V10.175C30.5067 10.0413 30.4348 9.91725 30.3199 9.85079L17.6674 2.54561C17.6097 2.51219 17.5448 2.49567 17.4803 2.49567Z" fill="white"/>
<path d="M12.5328 22.6522C12.1413 22.6522 11.7675 22.4521 11.5535 22.1075L8.69595 17.5039V21.4997C8.69595 22.1363 8.17999 22.6522 7.54341 22.6522C6.90682 22.6522 6.39087 22.1363 6.39087 21.4997V13.4611C6.39087 12.9463 6.7324 12.4938 7.22723 12.3528C7.72359 12.2125 8.25145 12.4162 8.52268 12.8534L11.3802 17.457V13.4611C11.3802 12.8245 11.8962 12.3086 12.5328 12.3086C13.1693 12.3086 13.6853 12.8245 13.6853 13.4611V21.4997C13.6853 22.0145 13.3438 22.4671 12.8489 22.6081C12.744 22.638 12.6376 22.6522 12.5328 22.6522Z" fill="white"/>
<path d="M16.4184 22.6522C15.7818 22.6522 15.2659 22.1363 15.2659 21.4997V13.4611C15.2659 12.8245 15.7818 12.3086 16.4184 12.3086H19.6152C20.2518 12.3086 20.7677 12.8245 20.7677 13.4611C20.7677 14.0977 20.2518 14.6137 19.6152 14.6137H17.5709V21.4997C17.5709 22.1363 17.055 22.6522 16.4184 22.6522Z" fill="white"/>
<path d="M19.6152 18.6313H16.4184C15.7818 18.6313 15.2659 18.1153 15.2659 17.4787C15.2659 16.8421 15.7818 16.3262 16.4184 16.3262H19.6152C20.2518 16.3262 20.7677 16.8421 20.7677 17.4787C20.7677 18.1153 20.2518 18.6313 19.6152 18.6313Z" fill="white"/>
<path d="M27.4171 14.6137H22.8488C22.2122 14.6137 21.6963 14.0977 21.6963 13.4611C21.6963 12.8245 22.2122 12.3086 22.8488 12.3086H27.4171C28.0537 12.3086 28.5696 12.8245 28.5696 13.4611C28.5696 14.0977 28.0537 14.6137 27.4171 14.6137Z" fill="white"/>
<path d="M25.1328 22.6522C24.4962 22.6522 23.9802 22.1363 23.9802 21.4997V13.4611C23.9802 12.8245 24.4962 12.3086 25.1328 12.3086C25.7693 12.3086 26.2853 12.8245 26.2853 13.4611V21.4997C26.2853 22.1363 25.7697 22.6522 25.1328 22.6522Z" fill="white"/>
</svg>
