<svg width="35" height="35" viewBox="0 0 35 35" fill="none" xmlns="http://www.w3.org/2000/svg">
<g clip-path="url(#clip0_1111_285)">
<path d="M13.3575 34.7691C13.1004 34.7691 12.8434 34.7184 12.5987 34.6174L8.81645 33.0503C8.327 32.8479 7.94551 32.4668 7.74267 31.9765C7.53982 31.4871 7.53982 30.9473 7.74267 30.4579C8.20983 29.3299 7.77148 28.3226 7.2052 27.7563C6.63892 27.1897 5.63237 26.7517 4.50326 27.2189C4.0142 27.4221 3.47481 27.4217 2.98498 27.2192C2.49516 27.0164 2.11367 26.6353 1.9112 26.1455L0.344518 22.3636C-0.0738537 21.3532 0.407523 20.1903 1.41792 19.7712C2.54664 19.304 2.94849 18.2821 2.94849 17.4811C2.94849 16.6804 2.54664 15.6581 1.4183 15.1906C0.928855 14.9877 0.547365 14.6066 0.344518 14.1168C0.141671 13.6274 0.141671 13.088 0.344518 12.5985L1.9112 8.81666C2.32996 7.80588 3.49402 7.32489 4.50326 7.74287C5.63121 8.21004 6.63853 7.77169 7.2052 7.20541C7.77148 6.63913 8.21021 5.63219 7.74267 4.50386C7.32391 3.49308 7.80567 2.33055 8.81645 1.9118L12.5983 0.345495C13.0878 0.142648 13.6271 0.142648 14.117 0.345495C14.6068 0.548341 14.9883 0.929832 15.1908 1.41966C15.6579 2.54761 16.6802 2.94946 17.4812 2.94946C18.2822 2.94946 19.3042 2.54761 19.7717 1.41928C20.1905 0.4085 21.3526 -0.0732614 22.3642 0.345495L26.1464 1.9118C26.6359 2.11464 27.0173 2.49575 27.2202 2.98558C27.4227 3.47502 27.4227 4.01479 27.2198 4.50424C26.7523 5.63219 27.1914 6.63913 27.7573 7.20541C28.3239 7.77169 29.3313 8.21004 30.4588 7.74287C30.9494 7.54003 31.4884 7.54041 31.9775 7.74287C32.4673 7.94572 32.8488 8.32721 33.0517 8.81704L34.618 12.5985C35.0363 13.6093 34.5546 14.7722 33.5442 15.1906C32.4158 15.6581 32.014 16.6804 32.014 17.4811C32.014 18.2821 32.4158 19.304 33.5442 19.7715H33.5446C34.5546 20.1907 35.0363 21.3532 34.6183 22.3636L33.0513 26.1458C32.8488 26.6349 32.4673 27.0164 31.9775 27.2196C31.4884 27.4225 30.9483 27.4225 30.4584 27.2192C29.3313 26.7517 28.3236 27.1908 27.7573 27.7567C27.191 28.3234 26.7526 29.3303 27.2198 30.4583C27.4227 30.9477 27.4227 31.4871 27.2202 31.9769C27.0173 32.4668 26.6359 32.8479 26.146 33.0511L22.3642 34.6174C21.3538 35.0362 20.1909 34.5536 19.7717 33.544C19.3042 32.4153 18.2822 32.013 17.4812 32.013C16.6806 32.013 15.6579 32.4153 15.1908 33.5436C14.9883 34.0327 14.6068 34.4142 14.1174 34.6174C13.8719 34.7184 13.6145 34.7691 13.3575 34.7691ZM9.98551 31.0399L13.193 32.3688C14.0017 30.7191 15.6172 29.708 17.4809 29.708C19.3449 29.708 20.96 30.7195 21.7683 32.3688L24.9754 31.0399C24.3811 29.3019 24.8083 27.4448 26.1264 26.127C27.4445 24.8089 29.3017 24.3813 31.0397 24.976L32.3686 21.7689C30.7189 20.9606 29.7078 19.3451 29.7078 17.4814C29.7078 15.6174 30.7189 14.0019 32.3686 13.1932L31.0397 9.98572C29.3021 10.5808 27.4442 10.1528 26.1264 8.83548C24.8079 7.51736 24.3811 5.66024 24.9754 3.92221L21.7683 2.59371C20.9604 4.243 19.3449 5.25416 17.4809 5.25416C15.6168 5.25416 14.0013 4.243 13.1926 2.59371L9.98512 3.92221C10.5798 5.66024 10.1526 7.51736 8.8345 8.83548C7.51638 10.1536 5.65964 10.5812 3.92123 9.98572L2.59274 13.1932C4.2424 14.0019 5.25357 15.6174 5.25357 17.4814C5.25357 19.3455 4.2424 20.9606 2.59274 21.7689L3.92123 24.976C5.65964 24.3817 7.51677 24.8089 8.8345 26.1266C10.153 27.4448 10.5802 29.3019 9.98551 31.0399ZM32.6598 21.9003C32.6602 21.9003 32.6606 21.9003 32.6609 21.9007C32.6606 21.9003 32.6602 21.9003 32.6598 21.9003ZM17.4809 25.4647C13.0789 25.4647 9.49721 21.8834 9.49721 17.4811C9.49721 13.0787 13.0789 9.49742 17.4809 9.49742C21.8828 9.49742 25.4649 13.0787 25.4649 17.4811C25.4649 21.8834 21.8832 25.4647 17.4809 25.4647ZM17.4809 11.8021C14.3498 11.8021 11.8023 14.35 11.8023 17.4811C11.8023 20.6125 14.3498 23.16 17.4809 23.16C20.6123 23.16 23.1598 20.6125 23.1598 17.4811C23.1598 14.35 20.6127 11.8021 17.4809 11.8021Z" fill="white"/>
</g>
<defs>
<clipPath id="clip0_1111_285">
<rect width="35" height="35" fill="white"/>
</clipPath>
</defs>
</svg>
