<svg width="22" height="23" viewBox="0 0 22 23" fill="none" xmlns="http://www.w3.org/2000/svg">
<g clip-path="url(#clip0_1111_1216)">
<path fill-rule="evenodd" clip-rule="evenodd" d="M11 0C4.92456 0 0 5.14841 0 11.5C0 17.8509 4.92456 23 11 23C17.0748 23 22 17.8516 22 11.5C22 5.14841 17.0748 0 11 0ZM11 21.5625C5.68425 21.5625 1.375 17.0574 1.375 11.5C1.375 5.94263 5.68425 1.4375 11 1.4375C16.3158 1.4375 20.625 5.94263 20.625 11.5C20.625 17.0574 16.3158 21.5625 11 21.5625Z" fill="white"/>
<path fill-rule="evenodd" clip-rule="evenodd" d="M15.626 15.2877L12.0043 11.5006L15.6054 7.76669C15.877 7.48566 15.877 7.03069 15.6054 6.75037C15.3345 6.47006 14.8945 6.47006 14.6237 6.75037L11.0273 10.4793L7.37741 6.66269C7.10653 6.37806 6.66653 6.37806 6.39566 6.66269C6.12478 6.94659 6.12478 7.40803 6.39566 7.69194L10.0401 11.5027L6.37503 15.3028C6.10416 15.5838 6.10416 16.0388 6.37503 16.3191C6.64591 16.6001 7.08591 16.6001 7.35747 16.3191L11.0177 12.5241L14.645 16.3162C14.9158 16.6008 15.3558 16.6008 15.6267 16.3162C15.8969 16.033 15.8969 15.5723 15.626 15.2877Z" fill="white"/>
</g>
<defs>
<clipPath id="clip0_1111_1216">
<rect width="22" height="23" fill="white"/>
</clipPath>
</defs>
</svg>
