<svg width="20" height="22" viewBox="0 0 20 22" fill="none" xmlns="http://www.w3.org/2000/svg">
<path d="M12 4.00065C12 3.63244 11.7015 3.33398 11.3333 3.33398H4.66667C4.29846 3.33398 4 3.63244 4 4.00065V9.33398C4 9.70219 4.29846 10.0007 4.66667 10.0007H11.3333C11.7015 10.0007 12 9.70219 12 9.33398V4.00065ZM10.6667 8.66732H5.33333V4.66732H10.6667V8.66732Z" fill="#EAB63E"/>
<path d="M19.6474 4.72721L16.9887 3.39388C16.6586 3.2285 16.2629 3.36296 16.0982 3.69204C15.9335 4.02146 16.0689 4.42188 16.3983 4.58658L17.4109 5.09238C17.3838 5.16488 17.3488 5.24154 17.3488 5.32358C17.3488 6.19158 18 6.92467 18.6667 7.20071V15.3236C18.6667 15.6911 18.3675 15.9902 18 15.9902C17.6325 15.9902 17.3333 15.6911 17.3333 15.3236V9.99025C17.3333 8.38063 16 7.03404 14.6667 6.72429V2.65692C14.6667 1.18654 13.5022 0 12.0318 0H4.03183C2.56146 0 1.33333 1.18654 1.33333 2.65692V17.5781L0.3685 18.0605C0.142583 18.1735 0 18.4043 0 18.6569V20.6569C0 21.0251 0.330333 21.3333 0.6985 21.3333H15.3652C15.7333 21.3333 16 21.0251 16 20.6569V18.6569C16 18.4043 15.8574 18.1735 15.6315 18.0605L14.6667 17.5781V8.11312C15.3333 8.38917 16 9.12225 16 9.99025V15.3236C16 16.4265 16.8971 17.3236 18 17.3236C19.1029 17.3236 20 16.4265 20 15.3236V5.32358C20 5.07096 19.8733 4.84017 19.6474 4.72721ZM14.6667 20H1.33333V19.069L2.29817 18.5866C2.52408 18.4736 2.66667 18.2428 2.66667 17.9902V2.65688C2.66667 1.92154 3.29646 1.33333 4.03183 1.33333H12.0318C12.7672 1.33333 13.3333 1.92154 13.3333 2.65692V17.9902C13.3333 18.2429 13.4759 18.4737 13.7018 18.5866L14.6667 19.069V20Z" fill="#EAB63E"/>
</svg>
