<svg width="32" height="28" viewBox="0 0 32 28" fill="none" xmlns="http://www.w3.org/2000/svg">
<g clip-path="url(#clip0_1111_1118)">
<path d="M12 23.3333V8.16667L13.6 10.0333C13.7051 10.1559 13.8367 10.2592 13.9873 10.3372C14.138 10.4153 14.3048 10.4666 14.4781 10.4883C14.6514 10.5099 14.828 10.5015 14.9976 10.4635C15.1672 10.4255 15.3266 10.3586 15.4667 10.2667C15.6323 10.158 15.7667 10.0171 15.8592 9.85508C15.9518 9.69308 16 9.51445 16 9.33333C16 9.0809 15.9064 8.83528 15.7333 8.63333L11.7333 3.96667C11.6089 3.82397 11.4485 3.70833 11.2647 3.62873C11.0808 3.54912 10.8785 3.50771 10.6733 3.50771C10.4682 3.50771 10.2659 3.54912 10.082 3.62873C9.89815 3.70833 9.73777 3.82397 9.61334 3.96667L5.61334 8.47C5.39586 8.71444 5.29827 9.02446 5.34203 9.33187C5.38579 9.63927 5.56731 9.91887 5.84667 10.1092C6.12604 10.2995 6.48035 10.3849 6.83167 10.3466C7.18298 10.3083 7.50253 10.1494 7.72001 9.905L9.33334 8.07333V23.3333C9.33334 23.6428 9.47382 23.9395 9.72387 24.1583C9.97391 24.3771 10.3131 24.5 10.6667 24.5C11.0203 24.5 11.3594 24.3771 11.6095 24.1583C11.8595 23.9395 12 23.6428 12 23.3333Z" fill="#EAB63E"/>
<path d="M21.3333 4.66656V19.8332L19.7333 17.9666C19.5211 17.719 19.2052 17.5554 18.8552 17.5116C18.5051 17.4679 18.1495 17.5476 17.8666 17.7332C17.5837 17.9189 17.3967 18.1953 17.3467 18.5016C17.2966 18.8079 17.3878 19.119 17.5999 19.3666L21.5999 24.0332C21.7244 24.1759 21.8847 24.2916 22.0686 24.3712C22.2524 24.4508 22.4548 24.4922 22.6599 24.4922C22.8651 24.4922 23.0674 24.4508 23.2513 24.3712C23.4351 24.2916 23.5955 24.1759 23.7199 24.0332L27.7199 19.5299C27.9005 19.3263 27.999 19.076 27.9999 18.8182C27.9994 18.6401 27.9523 18.4644 27.8622 18.3046C27.772 18.1448 27.6413 18.0052 27.4799 17.8966C27.202 17.7071 26.8496 17.6216 26.4998 17.6588C26.1501 17.6959 25.8313 17.8527 25.6133 18.0949L23.9999 19.9266V4.66656C23.9999 4.35714 23.8594 4.0604 23.6094 3.8416C23.3594 3.62281 23.0202 3.4999 22.6666 3.4999C22.313 3.4999 21.9738 3.62281 21.7238 3.8416C21.4737 4.0604 21.3333 4.35714 21.3333 4.66656Z" fill="#EAB63E"/>
</g>
<defs>
<clipPath id="clip0_1111_1118">
<rect width="28" height="32" fill="white" transform="matrix(0 -1 1 0 0 28)"/>
</clipPath>
</defs>
</svg>
